# xmcd
#
# Track frame offsets:
#	150
#	22737
#	46488
#	68873
#	92664
#	113568
#	131545
#	154183
#	171239
#	190048
#
# Disc length: 2795 seconds
#
# Revision: 1
# Processed by: cddbd v1.4PL0 Copyright (c) Steve Scherf et al.
# Submitted via: EasyCDDAExtractor 5.0.6
#
DISCID=780ae90a
DTITLE=Barbara Carr - Stroke It
DYEAR=2000
DGENRE=Blues
TTITLE0=Good With Your Hips
TTITLE1=I Love Him With A Feeling
TTITLE2=Hoochie Dance
TTITLE3=Make Me Feel It Like You Feel It
TTITLE4=A Woman Can Take It And She Can Dish It Out
TTITLE5=Love Call
TTITLE6=A Woman Ain't Got No Time For A Cheatin' Man
TTITLE7=Stroke It
TTITLE8=Be A Woman
TTITLE9=Give A Woman What She Wants
EXTD=
EXTT0=
EXTT1=
EXTT2=
EXTT3=
EXTT4=
EXTT5=
EXTT6=
EXTT7=
EXTT8=
EXTT9=
PLAYORDER=
